<svg xmlns="http://www.w3.org/2000/svg" xmlns:xlink="http://www.w3.org/1999/xlink"><defs>
<clipPath id="clip0_1_67">
<rect width="32" height="32" fill="white"/>
</clipPath>

<clipPath id="clip0_1_52">
<rect width="32" height="32" fill="white"/>
</clipPath>

<clipPath id="clip0_1_72">
<rect width="32" height="32" fill="white"/>
</clipPath>
</defs><symbol id="arrow" viewBox="0 0 18 30"><g fill="none">
<path d="M5.52663 15.0154L16.6369 26.25C17.0547 26.6678 17.2438 27.124 17.2636 27.75C17.2833 28.376 17.0942 28.9159 16.6369 29.3733C16.219 29.7911 15.6873 30 15.0415 30C14.3958 30 13.8641 29.7911 13.4462 29.3733L0.683706 16.6107C0.227902 16.1549 0 15.6232 0 15.0154C0 14.4077 0.227902 13.8759 0.683706 13.4201L13.4462 0.657585C13.8641 0.239765 14.3867 0.0209789 15.0142 0.00122643C15.6417 -0.0185242 16.1826 0.200262 16.6369 0.657585C17.0547 1.07541 17.2636 1.60718 17.2636 2.2529C17.2636 2.89862 17.0547 3.4304 16.6369 3.84822L5.52663 15.0154Z" fill="white"/>
</g></symbol><symbol id="icon-close" viewBox="0 0 52 52"><g fill="none">
<line x1="13.8894" y1="39.3452" x2="39.3452" y2="13.8894" stroke="white" stroke-width="5.45455"/>
<line x1="39.345" y1="38.1108" x2="13.8891" y2="12.655" stroke="white" stroke-width="5.45455"/>
</g></symbol><symbol id="icon-email" viewBox="0 0 32 32"><g fill="none">
<g clip-path="url(#clip0_1_67)">
<path d="M23.967 11.5026C23.965 11.5006 23.965 11.4986 23.964 11.4966C23.961 11.4926 23.955 11.4906 23.952 11.4856C23.603 11.0946 23.097 10.8496 22.534 10.8486H11.997C11.434 10.8486 10.928 11.0936 10.581 11.4836L10.579 11.4856C10.575 11.4896 10.57 11.4916 10.567 11.4966C10.565 11.4986 10.565 11.5006 10.564 11.5036C10.27 11.8356 10.091 12.2756 10.091 12.7566V15.7206H7.84201C7.68701 15.7216 7.56201 15.8466 7.56201 16.0016C7.56201 16.1566 7.68701 16.2816 7.84201 16.2826H10.091V17.8086H9.10701H9.10601C8.95101 17.8086 8.82501 17.9346 8.82501 18.0896C8.82501 18.2446 8.95101 18.3706 9.10601 18.3706H9.10701H10.091V19.2466C10.092 20.2996 10.945 21.1526 11.998 21.1536H22.535C23.588 21.1526 24.441 20.2996 24.442 19.2466V12.7576C24.442 12.2766 24.263 11.8366 23.967 11.5026ZM22.534 11.4096C22.822 11.4096 23.089 11.5016 23.307 11.6566L23.303 11.6536L17.938 15.8176C17.754 15.9616 17.52 16.0476 17.266 16.0476C17.012 16.0476 16.778 15.9606 16.592 15.8156L16.594 15.8176L11.229 11.6536C11.443 11.5016 11.71 11.4096 11.997 11.4096H22.534ZM23.879 19.2436C23.878 19.9866 23.276 20.5876 22.534 20.5886H11.997C11.254 20.5876 10.653 19.9856 10.652 19.2436V18.3676H13.407H13.408C13.563 18.3676 13.689 18.2416 13.689 18.0866C13.689 17.9316 13.563 17.8056 13.408 17.8056H13.407H10.652V12.7546C10.653 12.5006 10.726 12.2636 10.85 12.0626L10.847 12.0686L16.25 16.2616C16.528 16.4786 16.882 16.6096 17.266 16.6096C17.65 16.6096 18.005 16.4786 18.286 16.2586L18.282 16.2616L23.685 12.0686C23.806 12.2646 23.878 12.5006 23.88 12.7546L23.879 19.2436Z" fill="#21A038"/>
<circle cx="16" cy="16" r="15.75" stroke="#21A038" stroke-width="0.5"/>
</g>

</g></symbol><symbol id="icon-open" viewBox="0 0 21 14"><g fill="none">
<path d="M2.04104 13.3333H19.8188C20.4299 13.3333 20.9299 12.8333 20.9299 12.2222C20.9299 11.6111 20.4299 11.1111 19.8188 11.1111H2.04104C1.42993 11.1111 0.929932 11.6111 0.929932 12.2222C0.929932 12.8333 1.42993 13.3333 2.04104 13.3333ZM2.04104 7.77778H19.8188C20.4299 7.77778 20.9299 7.27778 20.9299 6.66667C20.9299 6.05556 20.4299 5.55556 19.8188 5.55556H2.04104C1.42993 5.55556 0.929932 6.05556 0.929932 6.66667C0.929932 7.27778 1.42993 7.77778 2.04104 7.77778ZM0.929932 1.11111C0.929932 1.72222 1.42993 2.22222 2.04104 2.22222H19.8188C20.4299 2.22222 20.9299 1.72222 20.9299 1.11111C20.9299 0.5 20.4299 0 19.8188 0H2.04104C1.42993 0 0.929932 0.5 0.929932 1.11111Z" fill="white"/>
</g></symbol><symbol id="icon-phone" viewBox="0 0 32 32"><g fill="none">
<g clip-path="url(#clip0_1_52)">
<circle cx="16" cy="16" r="15.75" stroke="#21A038" stroke-width="0.5"/>
<path d="M14.5691 15.5599C14.5691 15.8219 14.3571 16.0339 14.0951 16.0339C13.8331 16.0339 13.6211 15.8219 13.6211 15.5599C13.6211 15.2979 13.8331 15.0859 14.0951 15.0859C14.3571 15.0859 14.5691 15.2979 14.5691 15.5599Z" fill="#21A038"/>
<path d="M16.6472 15.5599C16.6472 15.8219 16.4352 16.0339 16.1732 16.0339C15.9112 16.0339 15.6992 15.8219 15.6992 15.5599C15.6992 15.2979 15.9112 15.0859 16.1732 15.0859C16.4352 15.0859 16.6472 15.2979 16.6472 15.5599Z" fill="#21A038"/>
<path d="M18.7253 15.5599C18.7253 15.8219 18.5133 16.0339 18.2513 16.0339C17.9893 16.0339 17.7773 15.8219 17.7773 15.5599C17.7773 15.2979 17.9893 15.0859 18.2513 15.0859C18.5133 15.0859 18.7253 15.2979 18.7253 15.5599Z" fill="#21A038"/>
<path d="M14.0951 16.9951C13.8331 16.9951 13.6211 17.2071 13.6211 17.4691C13.6211 17.7311 13.8331 17.9431 14.0951 17.9431C14.3571 17.9431 14.5691 17.7311 14.5691 17.4691C14.5691 17.2071 14.3571 16.9951 14.0951 16.9951Z" fill="#21A038"/>
<path d="M16.1732 16.9951C15.9112 16.9951 15.6992 17.2071 15.6992 17.4691C15.6992 17.7311 15.9112 17.9431 16.1732 17.9431C16.4352 17.9431 16.6472 17.7311 16.6472 17.4691C16.6472 17.2071 16.4352 16.9951 16.1732 16.9951Z" fill="#21A038"/>
<path d="M18.2513 16.9951C17.9893 16.9951 17.7773 17.2071 17.7773 17.4691C17.7773 17.7311 17.9893 17.9431 18.2513 17.9431C18.5133 17.9431 18.7253 17.7311 18.7253 17.4691C18.7253 17.2071 18.5133 16.9951 18.2513 16.9951Z" fill="#21A038"/>
<path d="M14.5691 19.267C14.5691 19.529 14.3571 19.741 14.0951 19.741C13.8331 19.741 13.6211 19.529 13.6211 19.267C13.6211 19.005 13.8331 18.793 14.0951 18.793C14.3571 18.793 14.5691 19.005 14.5691 19.267Z" fill="#21A038"/>
<path d="M16.6472 19.267C16.6472 19.529 16.4352 19.741 16.1732 19.741C15.9112 19.741 15.6992 19.529 15.6992 19.267C15.6992 19.005 15.9112 18.793 16.1732 18.793C16.4352 18.793 16.6472 19.005 16.6472 19.267Z" fill="#21A038"/>
<path d="M18.7253 19.267C18.7253 19.529 18.5133 19.741 18.2513 19.741C17.9893 19.741 17.7773 19.529 17.7773 19.267C17.7773 19.005 17.9893 18.793 18.2513 18.793C18.5133 18.793 18.7253 19.005 18.7253 19.267Z" fill="#21A038"/>
<path d="M24.331 12.6C24.329 12.595 24.328 12.59 24.326 12.586C23.633 10.49 21.693 9.003 19.405 9H12.665C10.378 9.003 8.439 10.491 7.759 12.55L7.749 12.587C7.747 12.591 7.746 12.595 7.744 12.6C7.589 13.068 7.5 13.606 7.5 14.166C7.5 14.538 7.802 14.84 8.174 14.84H11.173L9.793 17.137C9.286 17.968 8.985 18.974 8.985 20.049V20.691C8.986 21.583 9.709 22.307 10.602 22.308H21.887C22.779 22.307 23.503 21.584 23.504 20.691C23.504 20.688 23.504 20.685 23.504 20.681C23.504 19.207 23.04 17.842 22.25 16.723L22.264 16.745L20.936 14.84H23.909C24.277 14.84 24.575 14.541 24.576 14.173C24.576 13.611 24.486 13.071 24.32 12.565L24.33 12.601L24.331 12.6ZM12.665 9.561H19.405C21.318 9.563 22.958 10.729 23.656 12.389L23.667 12.419H19.764C19.32 11.911 18.671 11.593 17.948 11.593C17.947 11.593 17.946 11.593 17.945 11.593H14.043C13.322 11.596 12.676 11.914 12.235 12.417L12.233 12.42H8.407C9.114 10.73 10.753 9.564 12.664 9.562L12.665 9.561ZM8.061 14.165C8.063 13.743 8.121 13.336 8.229 12.949L8.221 12.981H11.863C11.745 13.222 11.665 13.504 11.639 13.8L11.638 13.809C11.621 13.983 11.571 14.141 11.495 14.284L11.498 14.277H8.173C8.111 14.277 8.06 14.227 8.06 14.164L8.061 14.165ZM22.943 20.69C22.942 21.272 22.47 21.744 21.888 21.745H10.603C10.021 21.744 9.549 21.272 9.548 20.69V20.048C9.548 19.079 9.819 18.173 10.288 17.402L10.275 17.425L11.862 14.782C11.927 14.736 11.97 14.664 11.978 14.582C12.095 14.372 12.174 14.124 12.198 13.862L12.199 13.855C12.284 12.902 13.077 12.16 14.044 12.155H17.947C18.936 12.155 19.746 12.932 19.796 13.909V13.913C19.806 14.112 19.872 14.294 19.979 14.445L19.977 14.442L21.806 17.065C22.519 18.073 22.945 19.327 22.945 20.681C22.945 20.684 22.945 20.687 22.945 20.691L22.943 20.69ZM23.91 14.277H20.545L20.436 14.12C20.389 14.054 20.36 13.973 20.355 13.885V13.884C20.338 13.553 20.257 13.245 20.124 12.966L20.13 12.981H23.853C23.954 13.338 24.013 13.748 24.015 14.171V14.172C24.015 14.23 23.968 14.277 23.91 14.277Z" fill="#21A038"/>
</g>

</g></symbol><symbol id="icon-pin" viewBox="0 0 32 32"><g fill="none">
<g clip-path="url(#clip0_1_72)">
<path d="M17.913 19.4055L20.524 15.8515C21.144 15.0525 21.517 14.0355 21.517 12.9315C21.517 12.9255 21.517 12.9195 21.517 12.9145V12.9155C21.507 11.3565 20.845 9.95446 19.791 8.96646L19.788 8.96346C18.829 8.07046 17.538 7.52246 16.119 7.52246C13.25 7.52246 10.904 9.76346 10.738 12.5915L10.737 12.6065C10.731 12.6985 10.728 12.8065 10.728 12.9145C10.728 14.1185 11.122 15.2315 11.788 16.1295L11.778 16.1145L14.041 19.4105C10.237 19.6165 6.55798 20.4515 6.55798 21.9185C6.55798 23.5815 11.423 24.4795 16 24.4795C20.577 24.4795 25.442 23.5815 25.442 21.9185C25.442 20.4195 21.731 19.5895 17.913 19.4055ZM11.298 12.6365C11.441 10.2045 13.365 8.26346 15.777 8.09546L15.792 8.09446C15.9033 8.08713 16.0143 8.08346 16.125 8.08346C16.129 8.08346 16.134 8.08346 16.14 8.08346C17.404 8.08346 18.554 8.57446 19.408 9.37646L19.405 9.37446C20.353 10.2635 20.946 11.5205 20.955 12.9165V12.9185C20.954 13.8915 20.628 14.7885 20.081 15.5065L20.089 15.4965L15.924 21.1635L12.235 15.7885C11.644 15.0015 11.288 14.0085 11.288 12.9325C11.288 12.8285 11.291 12.7265 11.298 12.6245L11.297 12.6385L11.298 12.6365ZM16 23.9175C10.498 23.9175 7.11898 22.7535 7.11898 21.9185C7.11898 21.6115 7.64898 21.1295 9.13498 20.7005C10.703 20.2785 12.515 20.0095 14.38 19.9555L14.414 19.9545L15.383 21.3665H12.822C12.667 21.3665 12.541 21.4925 12.541 21.6475C12.541 21.8025 12.667 21.9285 12.822 21.9285H18.93C19.085 21.9285 19.211 21.8025 19.211 21.6475C19.211 21.4925 19.085 21.3665 18.93 21.3665H16.472L17.512 19.9505C22.064 20.1175 24.88 21.0985 24.88 21.9185C24.88 22.7535 21.502 23.9175 16 23.9175Z" fill="#21A038"/>
<path d="M17.2828 13.0379C17.2828 13.6789 16.7638 14.1979 16.1228 14.1979C15.4818 14.1979 14.9628 13.6789 14.9628 13.0379C14.9628 12.3969 15.4818 11.8779 16.1228 11.8779C16.7638 11.8779 17.2828 12.3969 17.2828 13.0379Z" fill="#21A038"/>
<circle cx="16" cy="16" r="15.75" stroke="#21A038" stroke-width="0.5"/>
</g>

</g></symbol><symbol id="ruble" viewBox="0 0 13 14"><g fill="none">
<path d="M7.80469 9.26349H0.830966V7.04545H7.72798C8.24787 7.04545 8.67401 6.96875 9.00639 6.81534C9.33878 6.66193 9.58381 6.4446 9.74148 6.16335C9.89915 5.8821 9.97798 5.54972 9.97798 5.16619C9.97798 4.79119 9.89915 4.45241 9.74148 4.14986C9.58381 3.8473 9.34304 3.60653 9.01918 3.42756C8.69531 3.24858 8.29048 3.15909 7.80469 3.15909H5.43963V14H2.69105V0.909091H7.80469C8.8402 0.909091 9.72656 1.09446 10.4638 1.4652C11.2053 1.83168 11.772 2.33452 12.1641 2.97372C12.5561 3.60866 12.75 4.32883 12.7457 5.13423C12.75 5.97798 12.5518 6.70881 12.1513 7.3267C11.7507 7.9446 11.1797 8.42188 10.4382 8.75852C9.69673 9.09517 8.81889 9.26349 7.80469 9.26349ZM8.29688 10.1072V12.3253H0.830966V10.1072H8.29688Z" fill="#21A038"/>
</g></symbol><symbol id="telegram" viewBox="0 0 42 42"><g fill="none">
<path d="M21.0003 0.166992C9.50033 0.166992 0.166992 9.50033 0.166992 21.0003C0.166992 32.5003 9.50033 41.8337 21.0003 41.8337C32.5003 41.8337 41.8337 32.5003 41.8337 21.0003C41.8337 9.50033 32.5003 0.166992 21.0003 0.166992ZM30.667 14.3337C30.3545 17.6253 29.0003 25.6253 28.3128 29.3128C28.0212 30.8753 27.4378 31.3962 26.8962 31.4587C25.6878 31.5628 24.7712 30.667 23.6045 29.8962C21.7712 28.6878 20.7295 27.9378 18.9587 26.7712C16.8962 25.417 18.2295 24.667 19.417 23.4587C19.7295 23.1462 25.0628 18.292 25.167 17.8545C25.1815 17.7882 25.1795 17.7194 25.1614 17.6541C25.1432 17.5887 25.1094 17.5288 25.0628 17.4795C24.9378 17.3753 24.7712 17.417 24.6253 17.4378C24.4378 17.4795 21.5212 19.417 15.8337 23.2503C15.0003 23.8128 14.2503 24.1045 13.5837 24.0837C12.8337 24.0628 11.417 23.667 10.3545 23.3128C9.04199 22.8962 8.02116 22.667 8.10449 21.9378C8.14616 21.5628 8.66699 21.1878 9.64616 20.792C15.7295 18.1462 19.7712 16.3962 21.792 15.5628C27.5837 13.1462 28.7712 12.7295 29.5628 12.7295C29.7295 12.7295 30.1253 12.7712 30.3753 12.9795C30.5837 13.1462 30.6462 13.3753 30.667 13.542C30.6462 13.667 30.6878 14.042 30.667 14.3337Z" fill="#999999"/>
</g></symbol><symbol id="user" viewBox="0 0 15 15"><g fill="none">
<path fill-rule="evenodd" clip-rule="evenodd" d="M4.16667 3.33333C4.16667 2.44928 4.51786 1.60143 5.14298 0.976311C5.7681 0.351189 6.61594 0 7.5 0C8.38406 0 9.2319 0.351189 9.85702 0.976311C10.4821 1.60143 10.8333 2.44928 10.8333 3.33333C10.8333 4.21739 10.4821 5.06523 9.85702 5.69036C9.2319 6.31548 8.38406 6.66667 7.5 6.66667C6.61594 6.66667 5.7681 6.31548 5.14298 5.69036C4.51786 5.06523 4.16667 4.21739 4.16667 3.33333ZM4.16667 8.33333C3.0616 8.33333 2.00179 8.77232 1.22039 9.55372C0.438987 10.3351 0 11.3949 0 12.5C0 13.163 0.263392 13.7989 0.732233 14.2678C1.20107 14.7366 1.83696 15 2.5 15H12.5C13.163 15 13.7989 14.7366 14.2678 14.2678C14.7366 13.7989 15 13.163 15 12.5C15 11.3949 14.561 10.3351 13.7796 9.55372C12.9982 8.77232 11.9384 8.33333 10.8333 8.33333H4.16667Z" fill="#21A038"/>
</g></symbol><symbol id="vk" viewBox="0 0 42 42"><g fill="none">
<path d="M27.4024 0.166992H14.6191C2.94408 0.166992 0.166992 2.94408 0.166992 14.5982V27.3816C0.166992 39.0545 2.92324 41.8337 14.5982 41.8337H27.3816C39.0545 41.8337 41.8337 39.0774 41.8337 27.4024V14.6191C41.8337 2.94408 39.0774 0.166992 27.4024 0.166992ZM33.8045 29.8962H30.7649C29.6149 29.8962 29.2691 28.9649 27.2066 26.9024C25.4066 25.167 24.6462 24.9503 24.1899 24.9503C23.5607 24.9503 23.3878 25.1232 23.3878 25.992V28.7253C23.3878 29.4649 23.1482 29.8982 21.217 29.8982C19.3427 29.7723 17.5252 29.2029 15.9141 28.2369C14.303 27.2708 12.9444 25.9359 11.9503 24.342C9.59026 21.4045 7.94812 17.9569 7.15449 14.2732C7.15449 13.817 7.32741 13.4045 8.19616 13.4045H11.2337C12.0149 13.4045 12.2962 13.7524 12.6024 14.5545C14.0774 18.8962 16.5941 22.6712 17.6149 22.6712C18.0066 22.6712 18.1774 22.4982 18.1774 21.5212V17.0503C18.0482 15.0107 16.9649 14.8378 16.9649 14.1003C16.9788 13.9058 17.068 13.7244 17.2134 13.5944C17.3589 13.4645 17.5492 13.3964 17.7441 13.4045H22.5191C23.1712 13.4045 23.3878 13.7295 23.3878 14.5107V20.5441C23.3878 21.1962 23.6691 21.4128 23.8649 21.4128C24.2566 21.4128 24.5587 21.1962 25.2753 20.4795C26.8146 18.6023 28.0723 16.5109 29.0087 14.2712C29.1044 14.0021 29.2855 13.7718 29.5243 13.6153C29.7632 13.4588 30.0467 13.3848 30.3316 13.4045H33.3712C34.2816 13.4045 34.4753 13.8607 34.2816 14.5107C33.1763 16.9866 31.8088 19.3369 30.2024 21.5212C29.8753 22.0212 29.7441 22.2816 30.2024 22.867C30.5045 23.3232 31.5691 24.2128 32.2857 25.0587C33.3272 26.0975 34.1921 27.2994 34.8462 28.617C35.1066 29.4628 34.6712 29.8962 33.8045 29.8962Z" fill="#999999"/>
</g></symbol><symbol id="youtube" viewBox="0 0 50 36"><g fill="none">
<path d="M25.1594 0.246826H25.4375C28.0063 0.256201 41.0219 0.349952 44.5313 1.2937C45.5922 1.58173 46.5589 2.14315 47.3349 2.92185C48.1108 3.70056 48.6688 4.66928 48.9531 5.7312C49.2688 6.9187 49.4906 8.49058 49.6406 10.1125L49.6719 10.4375L49.7406 11.25L49.7656 11.575C49.9688 14.4312 49.9938 17.1062 49.9969 17.6906V17.925C49.9938 18.5312 49.9656 21.3874 49.7406 24.3624L49.7156 24.6906L49.6875 25.0156C49.5313 26.8031 49.3 28.5781 48.9531 29.8843C48.6697 30.9467 48.112 31.9159 47.3359 32.6947C46.5598 33.4735 45.5926 34.0347 44.5313 34.3218C40.9063 35.2968 27.1281 35.3656 25.2188 35.3687H24.775C23.8094 35.3687 19.8156 35.35 15.6281 35.2062L15.0969 35.1875L14.825 35.1749L14.2906 35.1531L13.7563 35.1312C10.2875 34.9781 6.98438 34.7312 5.4625 34.3187C4.40153 34.0318 3.43458 33.4711 2.65851 32.6929C1.88245 31.9146 1.32452 30.9461 1.04063 29.8843C0.69375 28.5812 0.4625 26.8031 0.30625 25.0156L0.28125 24.6875L0.25625 24.3624C0.102024 22.2449 0.0165621 20.123 0 18L0 17.6156C0.00625 16.9437 0.03125 14.6218 0.2 12.0593L0.221875 11.7375L0.23125 11.575L0.25625 11.25L0.325 10.4375L0.35625 10.1125C0.50625 8.49058 0.728125 6.91558 1.04375 5.7312C1.32717 4.66885 1.88488 3.69967 2.66098 2.92083C3.43708 2.14199 4.40428 1.58086 5.46563 1.2937C6.9875 0.887452 10.2906 0.637451 13.7594 0.481201L14.2906 0.459326L14.8281 0.440577L15.0969 0.431202L15.6313 0.409327C18.6053 0.313622 21.5806 0.260491 24.5563 0.249951H25.1594V0.246826ZM20 10.2781V25.3343L32.9906 17.8093L20 10.2781Z" fill="#999999"/>
</g></symbol></svg>