<svg xmlns="http://www.w3.org/2000/svg" xmlns:xlink="http://www.w3.org/1999/xlink" xmlns:serif="http://www.serif.com/"><defs>
<clipPath id="clip0_1_67">
<rect width="32" height="32" fill="white"/>
</clipPath>

<clipPath id="clip0_1_52">
<rect width="32" height="32" fill="white"/>
</clipPath>

<clipPath id="clip0_1_72">
<rect width="32" height="32" fill="white"/>
</clipPath>
</defs><symbol id="arrow" viewBox="0 0 18 30"><g fill="none">
<path d="M5.52663 15.0154L16.6369 26.25C17.0547 26.6678 17.2438 27.124 17.2636 27.75C17.2833 28.376 17.0942 28.9159 16.6369 29.3733C16.219 29.7911 15.6873 30 15.0415 30C14.3958 30 13.8641 29.7911 13.4462 29.3733L0.683706 16.6107C0.227902 16.1549 0 15.6232 0 15.0154C0 14.4077 0.227902 13.8759 0.683706 13.4201L13.4462 0.657585C13.8641 0.239765 14.3867 0.0209789 15.0142 0.00122643C15.6417 -0.0185242 16.1826 0.200262 16.6369 0.657585C17.0547 1.07541 17.2636 1.60718 17.2636 2.2529C17.2636 2.89862 17.0547 3.4304 16.6369 3.84822L5.52663 15.0154Z" fill="white"/>
</g></symbol><symbol id="home" viewBox="0 0 30 30"><g style="fill-rule:evenodd;clip-rule:evenodd;stroke-linejoin:round;stroke-miterlimit:2;">
    <g id="&#x41c;&#x43e;&#x43d;&#x442;&#x430;&#x436;&#x43d;&#x430;&#x44f;-&#x43e;&#x431;&#x43b;&#x430;&#x441;&#x442;&#x44c;1" serif:id="&#x41c;&#x43e;&#x43d;&#x442;&#x430;&#x436;&#x43d;&#x430;&#x44f; &#x43e;&#x431;&#x43b;&#x430;&#x441;&#x442;&#x44c;1" transform="matrix(0.0529768,0,0,0.105422,-2.72074,-3.91566)">
        <rect x="51.357" y="37.143" width="566.286" height="284.571" style="fill:none;"/>
        <g transform="matrix(0.057415,2.54528e-34,5.06501e-34,-0.0288523,53.1481,320.774)">
            <path d="M4892,9789C4813,9777 4716,9742 4643,9699C4578,9661 4431,9521 3505,8618L2865,7994L2858,8074C2841,8285 2711,8452 2520,8511C2457,8530 2429,8531 1935,8528L1415,8525L1340,8489C1179,8412 1080,8274 1060,8100C1054,8052 1050,7630 1050,7119L1050,6223L610,5795C368,5560 154,5346 135,5320C84,5250 34,5137 16,5048C-54,4707 145,4363 476,4254C557,4228 578,4225 702,4225L839,4225L845,785L872,689C975,312 1272,53 1652,10C1714,2 2110,0 2845,2L3945,5L4004,28C4164,88 4274,208 4315,367C4328,416 4330,569 4330,1415C4330,2519 4325,2448 4399,2497L4433,2520L5367,2520L5401,2497C5475,2448 5470,2519 5470,1415C5470,569 5472,416 5485,367C5526,208 5636,88 5796,28L5855,5L6955,2C7686,0 8086,2 8147,9C8527,53 8825,312 8928,688L8955,785L8961,4215L9075,4211C9282,4205 9433,4259 9574,4391C9775,4579 9847,4848 9766,5106C9724,5237 9681,5299 9499,5485C7247,7796 5504,9579 5447,9627C5295,9759 5089,9819 4892,9789ZM5072,9232C5087,9223 6027,8266 7161,7105C8691,5539 9227,4984 9242,4951C9297,4832 9170,4709 9047,4763C9018,4776 8980,4815 6854,7010C6116,7772 5453,8454 5379,8526C5212,8689 5138,8745 5065,8761C4927,8792 4794,8717 4515,8451C4374,8316 3193,7158 1847,5835C1041,5043 779,4791 746,4776C634,4728 521,4829 552,4949C561,4984 813,5233 2729,7101C3920,8263 4909,9221 4925,9232C4963,9255 5036,9255 5072,9232ZM5005,8114C5014,8110 5784,7323 6716,6364L8410,4620L8408,2718L8405,815L8379,759C8343,683 8293,630 8218,589L8155,555L7137,552C6015,549 6086,545 6038,612L6015,645L6010,1670C6006,2374 6001,2704 5994,2725C5932,2895 5802,3016 5639,3055C5544,3077 4256,3077 4161,3055C3988,3014 3839,2867 3801,2699C3794,2671 3790,2296 3790,1665L3790,674L3768,630C3723,543 3809,549 2665,552L1655,555L1599,581C1520,618 1466,671 1428,748L1395,815L1391,4625L3085,6280C4660,7818 4972,8120 4984,8120C4986,8120 4996,8117 5005,8114ZM2223,7976C2241,7969 2266,7950 2280,7936C2305,7909 2305,7908 2308,7681L2311,7454L1958,7110L1605,6765L1602,7305C1601,7602 1602,7859 1605,7876C1612,7917 1645,7959 1684,7976C1729,7995 2177,7996 2223,7976Z" style="fill:rgb(33,160,56);fill-rule:nonzero;"/>
        </g>
    </g>
</g></symbol><symbol id="icon-close" viewBox="0 0 52 52"><g fill="none">
<line x1="13.8894" y1="39.3452" x2="39.3452" y2="13.8894" stroke="white" stroke-width="5.45455"/>
<line x1="39.345" y1="38.1108" x2="13.8891" y2="12.655" stroke="white" stroke-width="5.45455"/>
</g></symbol><symbol id="icon-email" viewBox="0 0 32 32"><g fill="none">
<g clip-path="url(#clip0_1_67)">
<path d="M23.967 11.5026C23.965 11.5006 23.965 11.4986 23.964 11.4966C23.961 11.4926 23.955 11.4906 23.952 11.4856C23.603 11.0946 23.097 10.8496 22.534 10.8486H11.997C11.434 10.8486 10.928 11.0936 10.581 11.4836L10.579 11.4856C10.575 11.4896 10.57 11.4916 10.567 11.4966C10.565 11.4986 10.565 11.5006 10.564 11.5036C10.27 11.8356 10.091 12.2756 10.091 12.7566V15.7206H7.84201C7.68701 15.7216 7.56201 15.8466 7.56201 16.0016C7.56201 16.1566 7.68701 16.2816 7.84201 16.2826H10.091V17.8086H9.10701H9.10601C8.95101 17.8086 8.82501 17.9346 8.82501 18.0896C8.82501 18.2446 8.95101 18.3706 9.10601 18.3706H9.10701H10.091V19.2466C10.092 20.2996 10.945 21.1526 11.998 21.1536H22.535C23.588 21.1526 24.441 20.2996 24.442 19.2466V12.7576C24.442 12.2766 24.263 11.8366 23.967 11.5026ZM22.534 11.4096C22.822 11.4096 23.089 11.5016 23.307 11.6566L23.303 11.6536L17.938 15.8176C17.754 15.9616 17.52 16.0476 17.266 16.0476C17.012 16.0476 16.778 15.9606 16.592 15.8156L16.594 15.8176L11.229 11.6536C11.443 11.5016 11.71 11.4096 11.997 11.4096H22.534ZM23.879 19.2436C23.878 19.9866 23.276 20.5876 22.534 20.5886H11.997C11.254 20.5876 10.653 19.9856 10.652 19.2436V18.3676H13.407H13.408C13.563 18.3676 13.689 18.2416 13.689 18.0866C13.689 17.9316 13.563 17.8056 13.408 17.8056H13.407H10.652V12.7546C10.653 12.5006 10.726 12.2636 10.85 12.0626L10.847 12.0686L16.25 16.2616C16.528 16.4786 16.882 16.6096 17.266 16.6096C17.65 16.6096 18.005 16.4786 18.286 16.2586L18.282 16.2616L23.685 12.0686C23.806 12.2646 23.878 12.5006 23.88 12.7546L23.879 19.2436Z" fill="#21A038"/>
<circle cx="16" cy="16" r="15.75" stroke="#21A038" stroke-width="0.5"/>
</g>

</g></symbol><symbol id="icon-open" viewBox="0 0 21 14"><g fill="none">
<path d="M2.04104 13.3333H19.8188C20.4299 13.3333 20.9299 12.8333 20.9299 12.2222C20.9299 11.6111 20.4299 11.1111 19.8188 11.1111H2.04104C1.42993 11.1111 0.929932 11.6111 0.929932 12.2222C0.929932 12.8333 1.42993 13.3333 2.04104 13.3333ZM2.04104 7.77778H19.8188C20.4299 7.77778 20.9299 7.27778 20.9299 6.66667C20.9299 6.05556 20.4299 5.55556 19.8188 5.55556H2.04104C1.42993 5.55556 0.929932 6.05556 0.929932 6.66667C0.929932 7.27778 1.42993 7.77778 2.04104 7.77778ZM0.929932 1.11111C0.929932 1.72222 1.42993 2.22222 2.04104 2.22222H19.8188C20.4299 2.22222 20.9299 1.72222 20.9299 1.11111C20.9299 0.5 20.4299 0 19.8188 0H2.04104C1.42993 0 0.929932 0.5 0.929932 1.11111Z" fill="white"/>
</g></symbol><symbol id="icon-phone" viewBox="0 0 32 32"><g fill="none">
<g clip-path="url(#clip0_1_52)">
<circle cx="16" cy="16" r="15.75" stroke="#21A038" stroke-width="0.5"/>
<path d="M14.5691 15.5599C14.5691 15.8219 14.3571 16.0339 14.0951 16.0339C13.8331 16.0339 13.6211 15.8219 13.6211 15.5599C13.6211 15.2979 13.8331 15.0859 14.0951 15.0859C14.3571 15.0859 14.5691 15.2979 14.5691 15.5599Z" fill="#21A038"/>
<path d="M16.6472 15.5599C16.6472 15.8219 16.4352 16.0339 16.1732 16.0339C15.9112 16.0339 15.6992 15.8219 15.6992 15.5599C15.6992 15.2979 15.9112 15.0859 16.1732 15.0859C16.4352 15.0859 16.6472 15.2979 16.6472 15.5599Z" fill="#21A038"/>
<path d="M18.7253 15.5599C18.7253 15.8219 18.5133 16.0339 18.2513 16.0339C17.9893 16.0339 17.7773 15.8219 17.7773 15.5599C17.7773 15.2979 17.9893 15.0859 18.2513 15.0859C18.5133 15.0859 18.7253 15.2979 18.7253 15.5599Z" fill="#21A038"/>
<path d="M14.0951 16.9951C13.8331 16.9951 13.6211 17.2071 13.6211 17.4691C13.6211 17.7311 13.8331 17.9431 14.0951 17.9431C14.3571 17.9431 14.5691 17.7311 14.5691 17.4691C14.5691 17.2071 14.3571 16.9951 14.0951 16.9951Z" fill="#21A038"/>
<path d="M16.1732 16.9951C15.9112 16.9951 15.6992 17.2071 15.6992 17.4691C15.6992 17.7311 15.9112 17.9431 16.1732 17.9431C16.4352 17.9431 16.6472 17.7311 16.6472 17.4691C16.6472 17.2071 16.4352 16.9951 16.1732 16.9951Z" fill="#21A038"/>
<path d="M18.2513 16.9951C17.9893 16.9951 17.7773 17.2071 17.7773 17.4691C17.7773 17.7311 17.9893 17.9431 18.2513 17.9431C18.5133 17.9431 18.7253 17.7311 18.7253 17.4691C18.7253 17.2071 18.5133 16.9951 18.2513 16.9951Z" fill="#21A038"/>
<path d="M14.5691 19.267C14.5691 19.529 14.3571 19.741 14.0951 19.741C13.8331 19.741 13.6211 19.529 13.6211 19.267C13.6211 19.005 13.8331 18.793 14.0951 18.793C14.3571 18.793 14.5691 19.005 14.5691 19.267Z" fill="#21A038"/>
<path d="M16.6472 19.267C16.6472 19.529 16.4352 19.741 16.1732 19.741C15.9112 19.741 15.6992 19.529 15.6992 19.267C15.6992 19.005 15.9112 18.793 16.1732 18.793C16.4352 18.793 16.6472 19.005 16.6472 19.267Z" fill="#21A038"/>
<path d="M18.7253 19.267C18.7253 19.529 18.5133 19.741 18.2513 19.741C17.9893 19.741 17.7773 19.529 17.7773 19.267C17.7773 19.005 17.9893 18.793 18.2513 18.793C18.5133 18.793 18.7253 19.005 18.7253 19.267Z" fill="#21A038"/>
<path d="M24.331 12.6C24.329 12.595 24.328 12.59 24.326 12.586C23.633 10.49 21.693 9.003 19.405 9H12.665C10.378 9.003 8.439 10.491 7.759 12.55L7.749 12.587C7.747 12.591 7.746 12.595 7.744 12.6C7.589 13.068 7.5 13.606 7.5 14.166C7.5 14.538 7.802 14.84 8.174 14.84H11.173L9.793 17.137C9.286 17.968 8.985 18.974 8.985 20.049V20.691C8.986 21.583 9.709 22.307 10.602 22.308H21.887C22.779 22.307 23.503 21.584 23.504 20.691C23.504 20.688 23.504 20.685 23.504 20.681C23.504 19.207 23.04 17.842 22.25 16.723L22.264 16.745L20.936 14.84H23.909C24.277 14.84 24.575 14.541 24.576 14.173C24.576 13.611 24.486 13.071 24.32 12.565L24.33 12.601L24.331 12.6ZM12.665 9.561H19.405C21.318 9.563 22.958 10.729 23.656 12.389L23.667 12.419H19.764C19.32 11.911 18.671 11.593 17.948 11.593C17.947 11.593 17.946 11.593 17.945 11.593H14.043C13.322 11.596 12.676 11.914 12.235 12.417L12.233 12.42H8.407C9.114 10.73 10.753 9.564 12.664 9.562L12.665 9.561ZM8.061 14.165C8.063 13.743 8.121 13.336 8.229 12.949L8.221 12.981H11.863C11.745 13.222 11.665 13.504 11.639 13.8L11.638 13.809C11.621 13.983 11.571 14.141 11.495 14.284L11.498 14.277H8.173C8.111 14.277 8.06 14.227 8.06 14.164L8.061 14.165ZM22.943 20.69C22.942 21.272 22.47 21.744 21.888 21.745H10.603C10.021 21.744 9.549 21.272 9.548 20.69V20.048C9.548 19.079 9.819 18.173 10.288 17.402L10.275 17.425L11.862 14.782C11.927 14.736 11.97 14.664 11.978 14.582C12.095 14.372 12.174 14.124 12.198 13.862L12.199 13.855C12.284 12.902 13.077 12.16 14.044 12.155H17.947C18.936 12.155 19.746 12.932 19.796 13.909V13.913C19.806 14.112 19.872 14.294 19.979 14.445L19.977 14.442L21.806 17.065C22.519 18.073 22.945 19.327 22.945 20.681C22.945 20.684 22.945 20.687 22.945 20.691L22.943 20.69ZM23.91 14.277H20.545L20.436 14.12C20.389 14.054 20.36 13.973 20.355 13.885V13.884C20.338 13.553 20.257 13.245 20.124 12.966L20.13 12.981H23.853C23.954 13.338 24.013 13.748 24.015 14.171V14.172C24.015 14.23 23.968 14.277 23.91 14.277Z" fill="#21A038"/>
</g>

</g></symbol><symbol id="icon-pin" viewBox="0 0 32 32"><g fill="none">
<g clip-path="url(#clip0_1_72)">
<path d="M17.913 19.4055L20.524 15.8515C21.144 15.0525 21.517 14.0355 21.517 12.9315C21.517 12.9255 21.517 12.9195 21.517 12.9145V12.9155C21.507 11.3565 20.845 9.95446 19.791 8.96646L19.788 8.96346C18.829 8.07046 17.538 7.52246 16.119 7.52246C13.25 7.52246 10.904 9.76346 10.738 12.5915L10.737 12.6065C10.731 12.6985 10.728 12.8065 10.728 12.9145C10.728 14.1185 11.122 15.2315 11.788 16.1295L11.778 16.1145L14.041 19.4105C10.237 19.6165 6.55798 20.4515 6.55798 21.9185C6.55798 23.5815 11.423 24.4795 16 24.4795C20.577 24.4795 25.442 23.5815 25.442 21.9185C25.442 20.4195 21.731 19.5895 17.913 19.4055ZM11.298 12.6365C11.441 10.2045 13.365 8.26346 15.777 8.09546L15.792 8.09446C15.9033 8.08713 16.0143 8.08346 16.125 8.08346C16.129 8.08346 16.134 8.08346 16.14 8.08346C17.404 8.08346 18.554 8.57446 19.408 9.37646L19.405 9.37446C20.353 10.2635 20.946 11.5205 20.955 12.9165V12.9185C20.954 13.8915 20.628 14.7885 20.081 15.5065L20.089 15.4965L15.924 21.1635L12.235 15.7885C11.644 15.0015 11.288 14.0085 11.288 12.9325C11.288 12.8285 11.291 12.7265 11.298 12.6245L11.297 12.6385L11.298 12.6365ZM16 23.9175C10.498 23.9175 7.11898 22.7535 7.11898 21.9185C7.11898 21.6115 7.64898 21.1295 9.13498 20.7005C10.703 20.2785 12.515 20.0095 14.38 19.9555L14.414 19.9545L15.383 21.3665H12.822C12.667 21.3665 12.541 21.4925 12.541 21.6475C12.541 21.8025 12.667 21.9285 12.822 21.9285H18.93C19.085 21.9285 19.211 21.8025 19.211 21.6475C19.211 21.4925 19.085 21.3665 18.93 21.3665H16.472L17.512 19.9505C22.064 20.1175 24.88 21.0985 24.88 21.9185C24.88 22.7535 21.502 23.9175 16 23.9175Z" fill="#21A038"/>
<path d="M17.2828 13.0379C17.2828 13.6789 16.7638 14.1979 16.1228 14.1979C15.4818 14.1979 14.9628 13.6789 14.9628 13.0379C14.9628 12.3969 15.4818 11.8779 16.1228 11.8779C16.7638 11.8779 17.2828 12.3969 17.2828 13.0379Z" fill="#21A038"/>
<circle cx="16" cy="16" r="15.75" stroke="#21A038" stroke-width="0.5"/>
</g>

</g></symbol><symbol id="plus" viewBox="0 0 15 16"><g fill="none">
<line y1="8" x2="15" y2="8" stroke="white" stroke-width="3"/>
<line x1="7.5" y1="15.5" x2="7.5" y2="0.5" stroke="white" stroke-width="3"/>
</g></symbol><symbol id="projects" viewBox="0 0 32 32"><g style="fill-rule:evenodd;clip-rule:evenodd;stroke-linejoin:round;stroke-miterlimit:2;">
    <g id="&#x41c;&#x43e;&#x43d;&#x442;&#x430;&#x436;&#x43d;&#x430;&#x44f;-&#x43e;&#x431;&#x43b;&#x430;&#x441;&#x442;&#x44c;1" serif:id="&#x41c;&#x43e;&#x43d;&#x442;&#x430;&#x436;&#x43d;&#x430;&#x44f; &#x43e;&#x431;&#x43b;&#x430;&#x441;&#x442;&#x44c;1" transform="matrix(0.061742,0,0,0.125843,-10.1566,-17.7618)">
        <rect x="164.5" y="141.143" width="518.286" height="254.286" style="fill:none;"/>
        <g transform="matrix(16.0036,0,0,7.8518,166.786,141.851)">
            <path d="M25.572,11.63C25.976,12.034 26.39,12.449 26.793,12.851C27.003,12.27 27.237,11.628 27.493,10.924C26.771,11.189 26.124,11.427 25.572,11.63ZM11.983,24.644C11.472,25.053 11.092,25.519 11.261,26.217C11.383,26.723 11.718,27.054 12.232,27.164C12.932,27.314 13.384,26.926 13.775,26.444C13.175,25.84 12.589,25.252 11.983,24.644ZM0.047,14.227C0.194,14.056 0.332,13.874 0.491,13.714C4.894,9.308 9.298,4.904 13.703,0.499C14.229,-0.026 14.489,-0.028 15.006,0.489C17.246,2.728 19.485,4.967 21.723,7.207C21.818,7.303 21.914,7.401 21.989,7.512C22.166,7.771 22.134,8.066 21.923,8.282C21.713,8.497 21.414,8.534 21.156,8.363C21.043,8.289 20.945,8.194 20.849,8.099C18.786,6.038 16.723,3.976 14.661,1.913C14.573,1.825 14.495,1.728 14.446,1.673C10.388,5.731 6.352,9.767 2.33,13.789C2.977,13.789 3.69,13.797 4.403,13.779C4.503,13.777 4.612,13.66 4.697,13.576C7.667,10.61 10.635,7.641 13.604,4.673C13.663,4.614 13.721,4.555 13.78,4.496C14.214,4.069 14.51,4.071 14.95,4.507C15.113,4.668 15.274,4.831 15.437,4.993C17.742,7.299 20.047,9.604 22.352,11.91C22.439,11.998 22.513,12.1 22.624,12.232C22.996,11.851 23.316,11.497 23.667,11.175C23.845,11.01 24.06,10.862 24.286,10.777C25.589,10.284 26.899,9.811 28.209,9.334C28.665,9.168 29.016,9.294 29.125,9.681C29.166,9.829 29.153,10.016 29.1,10.163C28.61,11.533 28.11,12.9 27.599,14.263C27.54,14.423 27.426,14.575 27.305,14.697C25.793,16.219 24.274,17.735 22.754,19.249C22.653,19.351 22.536,19.456 22.406,19.505C22.152,19.605 21.91,19.547 21.728,19.333C21.549,19.123 21.517,18.881 21.658,18.641C21.73,18.517 21.834,18.41 21.936,18.307C23.319,16.921 24.704,15.537 26.067,14.175C25.465,13.573 24.873,12.98 24.312,12.42C20.552,16.18 16.757,19.975 12.984,23.748C13.531,24.296 14.124,24.891 14.731,25.499C14.781,25.453 14.864,25.377 14.942,25.299C16.136,24.106 17.328,22.913 18.522,21.72C18.61,21.632 18.703,21.544 18.806,21.479C19.055,21.321 19.381,21.366 19.576,21.572C19.775,21.782 19.799,22.097 19.628,22.347C19.571,22.432 19.498,22.508 19.424,22.582C17.753,24.254 16.083,25.927 14.408,27.596C13.483,28.518 12.338,28.698 11.245,28.105C9.947,27.402 9.567,25.559 10.482,24.402C10.559,24.303 10.625,24.185 10.724,24.117C11.211,23.78 11.253,23.309 11.246,22.761C11.218,20.616 11.234,18.469 11.235,16.324C11.235,15.686 11.442,15.478 12.076,15.478C13.597,15.477 15.118,15.476 16.639,15.479C16.772,15.479 16.912,15.483 17.04,15.52C17.322,15.603 17.474,15.814 17.475,16.101C17.475,16.386 17.325,16.599 17.043,16.683C16.916,16.721 16.776,16.725 16.643,16.726C15.382,16.728 14.122,16.727 12.861,16.727L12.504,16.727L12.504,22.205C15.548,19.163 18.615,16.098 21.662,13.052C19.254,10.644 16.804,8.193 14.269,5.657C14.216,5.745 14.169,5.87 14.084,5.957C11.192,8.854 8.294,11.746 5.407,14.647C5.128,14.926 4.836,15.061 4.44,15.046C3.827,15.022 3.211,15.04 2.572,15.04L2.572,30.853L11.456,30.853C11.529,30.853 11.602,30.852 11.675,30.853C12.136,30.856 12.386,31.016 12.462,31.359C12.532,31.667 12.383,31.9 11.985,32.102L1.734,32.102C1.386,31.909 1.291,31.607 1.291,31.219C1.299,25.957 1.297,20.694 1.297,15.431L1.297,15.045C0.812,15.033 0.308,15.136 0.047,14.602L0.047,14.227Z" style="fill:rgb(34,161,73);fill-rule:nonzero;"/>
            <path d="M18.517,27.647C18.684,27.796 18.88,27.952 19.052,28.13C19.357,28.446 19.365,28.812 19.09,29.071C18.835,29.313 18.471,29.292 18.17,29.005C17.992,28.835 17.829,28.649 17.729,28.544C16.922,29.336 16.143,30.101 15.403,30.828L30.782,30.828L30.782,15.421C30.019,16.185 29.246,16.958 28.462,17.743C28.592,17.87 28.751,18.02 28.904,18.176C29.236,18.516 29.271,18.899 28.997,19.165C28.719,19.432 28.37,19.404 28.034,19.067C27.873,18.906 27.735,18.723 27.615,18.583C27.043,19.154 26.523,19.67 25.953,20.237C26.11,20.374 26.3,20.521 26.466,20.691C26.77,21.002 26.788,21.375 26.53,21.633C26.274,21.89 25.897,21.871 25.587,21.57C25.412,21.4 25.254,21.209 25.103,21.043C24.533,21.612 24.017,22.124 23.454,22.686C23.631,22.843 23.83,22.997 24.001,23.175C24.303,23.49 24.312,23.861 24.043,24.118C23.784,24.366 23.429,24.351 23.124,24.059C22.944,23.887 22.787,23.691 22.646,23.534C22.086,24.096 21.568,24.618 21.003,25.185C21.15,25.314 21.33,25.456 21.49,25.617C21.812,25.94 21.842,26.318 21.582,26.582C21.318,26.848 20.938,26.827 20.618,26.501C20.452,26.333 20.32,26.132 20.188,25.965C19.59,26.567 19.078,27.082 18.517,27.647ZM13.547,32.102C12.985,31.71 12.96,31.369 13.461,30.868C19.248,25.081 25.035,19.294 30.82,13.507C31.049,13.278 31.284,13.072 31.639,13.213C32.004,13.357 32.05,13.663 32.05,14.007C32.047,19.744 32.045,25.481 32.053,31.218C32.054,31.606 31.96,31.909 31.611,32.102L13.547,32.102Z" style="fill:rgb(34,161,73);fill-rule:nonzero;"/>
            <path d="M8.775,22.713L8.775,19.001L5.063,19.001L5.063,22.713L8.775,22.713ZM10.047,20.884C10.047,21.655 10.049,22.425 10.046,23.196C10.044,23.75 9.82,23.976 9.266,23.977C7.703,23.979 6.141,23.979 4.579,23.977C4.024,23.976 3.799,23.75 3.798,23.196C3.795,21.633 3.795,20.071 3.798,18.509C3.799,17.955 4.024,17.729 4.579,17.728C6.141,17.726 7.703,17.726 9.266,17.728C9.82,17.729 10.044,17.955 10.046,18.509C10.049,19.3 10.047,20.092 10.047,20.884Z" style="fill:rgb(34,161,73);fill-rule:nonzero;"/>
            <path d="M14.361,13.037C14.97,13.037 15.475,12.538 15.482,11.929C15.491,11.31 14.979,10.791 14.358,10.792C13.751,10.793 13.245,11.293 13.237,11.9C13.23,12.521 13.74,13.038 14.361,13.037ZM16.732,11.905C16.741,13.191 15.671,14.272 14.377,14.287C13.082,14.302 11.982,13.207 11.987,11.909C11.993,10.618 13.069,9.543 14.358,9.542C15.646,9.541 16.724,10.613 16.732,11.905Z" style="fill:rgb(34,161,73);fill-rule:nonzero;"/>
            <path d="M20.658,19.856C20.989,19.862 21.271,20.155 21.265,20.486C21.259,20.818 20.967,21.103 20.639,21.097C20.305,21.09 20.033,20.806 20.038,20.467C20.042,20.129 20.326,19.85 20.658,19.856Z" style="fill:rgb(34,161,73);fill-rule:nonzero;"/>
            <path d="M23.668,9.438C23.652,9.765 23.343,10.05 23.024,10.034C22.698,10.019 22.413,9.71 22.428,9.391C22.444,9.064 22.752,8.779 23.072,8.795C23.398,8.811 23.683,9.119 23.668,9.438Z" style="fill:rgb(34,161,73);fill-rule:nonzero;"/>
            <path d="M22.851,27.707L27.647,27.707L27.647,22.908C26.044,24.511 24.458,26.099 22.851,27.707ZM28.923,24.827C28.923,25.94 28.924,27.054 28.922,28.167C28.921,28.759 28.704,28.977 28.109,28.977C25.892,28.978 23.676,28.976 21.46,28.98C21.134,28.981 20.849,28.921 20.712,28.592C20.577,28.266 20.726,28.017 20.958,27.787C23.218,25.531 25.478,23.271 27.735,21.01C27.965,20.779 28.214,20.631 28.541,20.769C28.869,20.907 28.927,21.193 28.925,21.517C28.918,22.621 28.923,23.724 28.923,24.827Z" style="fill:rgb(34,161,73);fill-rule:nonzero;"/>
        </g>
    </g>
</g></symbol><symbol id="ruble" viewBox="0 0 13 14"><g fill="none">
<path d="M7.80469 9.26349H0.830966V7.04545H7.72798C8.24787 7.04545 8.67401 6.96875 9.00639 6.81534C9.33878 6.66193 9.58381 6.4446 9.74148 6.16335C9.89915 5.8821 9.97798 5.54972 9.97798 5.16619C9.97798 4.79119 9.89915 4.45241 9.74148 4.14986C9.58381 3.8473 9.34304 3.60653 9.01918 3.42756C8.69531 3.24858 8.29048 3.15909 7.80469 3.15909H5.43963V14H2.69105V0.909091H7.80469C8.8402 0.909091 9.72656 1.09446 10.4638 1.4652C11.2053 1.83168 11.772 2.33452 12.1641 2.97372C12.5561 3.60866 12.75 4.32883 12.7457 5.13423C12.75 5.97798 12.5518 6.70881 12.1513 7.3267C11.7507 7.9446 11.1797 8.42188 10.4382 8.75852C9.69673 9.09517 8.81889 9.26349 7.80469 9.26349ZM8.29688 10.1072V12.3253H0.830966V10.1072H8.29688Z" fill="#21A038"/>
</g></symbol><symbol id="telegram" viewBox="0 0 42 42"><g fill="currentColor">
<path d="M21.0003 0.166992C9.50033 0.166992 0.166992 9.50033 0.166992 21.0003C0.166992 32.5003 9.50033 41.8337 21.0003 41.8337C32.5003 41.8337 41.8337 32.5003 41.8337 21.0003C41.8337 9.50033 32.5003 0.166992 21.0003 0.166992ZM30.667 14.3337C30.3545 17.6253 29.0003 25.6253 28.3128 29.3128C28.0212 30.8753 27.4378 31.3962 26.8962 31.4587C25.6878 31.5628 24.7712 30.667 23.6045 29.8962C21.7712 28.6878 20.7295 27.9378 18.9587 26.7712C16.8962 25.417 18.2295 24.667 19.417 23.4587C19.7295 23.1462 25.0628 18.292 25.167 17.8545C25.1815 17.7882 25.1795 17.7194 25.1614 17.6541C25.1432 17.5887 25.1094 17.5288 25.0628 17.4795C24.9378 17.3753 24.7712 17.417 24.6253 17.4378C24.4378 17.4795 21.5212 19.417 15.8337 23.2503C15.0003 23.8128 14.2503 24.1045 13.5837 24.0837C12.8337 24.0628 11.417 23.667 10.3545 23.3128C9.04199 22.8962 8.02116 22.667 8.10449 21.9378C8.14616 21.5628 8.66699 21.1878 9.64616 20.792C15.7295 18.1462 19.7712 16.3962 21.792 15.5628C27.5837 13.1462 28.7712 12.7295 29.5628 12.7295C29.7295 12.7295 30.1253 12.7712 30.3753 12.9795C30.5837 13.1462 30.6462 13.3753 30.667 13.542C30.6462 13.667 30.6878 14.042 30.667 14.3337Z" fill="currentColor"/>
</g></symbol><symbol id="user" viewBox="0 0 15 15"><g fill="none">
<path fill-rule="evenodd" clip-rule="evenodd" d="M4.16667 3.33333C4.16667 2.44928 4.51786 1.60143 5.14298 0.976311C5.7681 0.351189 6.61594 0 7.5 0C8.38406 0 9.2319 0.351189 9.85702 0.976311C10.4821 1.60143 10.8333 2.44928 10.8333 3.33333C10.8333 4.21739 10.4821 5.06523 9.85702 5.69036C9.2319 6.31548 8.38406 6.66667 7.5 6.66667C6.61594 6.66667 5.7681 6.31548 5.14298 5.69036C4.51786 5.06523 4.16667 4.21739 4.16667 3.33333ZM4.16667 8.33333C3.0616 8.33333 2.00179 8.77232 1.22039 9.55372C0.438987 10.3351 0 11.3949 0 12.5C0 13.163 0.263392 13.7989 0.732233 14.2678C1.20107 14.7366 1.83696 15 2.5 15H12.5C13.163 15 13.7989 14.7366 14.2678 14.2678C14.7366 13.7989 15 13.163 15 12.5C15 11.3949 14.561 10.3351 13.7796 9.55372C12.9982 8.77232 11.9384 8.33333 10.8333 8.33333H4.16667Z" fill="#21A038"/>
</g></symbol><symbol id="villa" viewBox="0 0 32 32"><g style="fill-rule:evenodd;clip-rule:evenodd;stroke-linejoin:round;stroke-miterlimit:2;">
    <g id="&#x41c;&#x43e;&#x43d;&#x442;&#x430;&#x436;&#x43d;&#x430;&#x44f;-&#x43e;&#x431;&#x43b;&#x430;&#x441;&#x442;&#x44c;1" serif:id="&#x41c;&#x43e;&#x43d;&#x442;&#x430;&#x436;&#x43d;&#x430;&#x44f; &#x43e;&#x431;&#x43b;&#x430;&#x441;&#x442;&#x44c;1" transform="matrix(0.0972222,0,0,0.180645,-3.77083,-22.1935)">
        <rect x="38.786" y="122.857" width="329.143" height="177.143" style="fill:none;"/>
        <g transform="matrix(9.91337,0,0,5.33534,43.9599,126.658)">
            <g transform="matrix(1,0,0,1,-2.88589e-13,-0.145903)">
                <path d="M30.941,17.998L30.941,18.852L1.218,18.852L1.218,17.998L30.941,17.998ZM18.019,3.936L16.973,3.007C16.74,2.8 16.584,2.696 16.426,2.696C16.268,2.696 16.11,2.8 15.875,3.008L14.522,4.211C13.473,5.143 12.424,6.075 11.37,7.001C11.268,7.093 11.122,7.157 11.018,7.158C8.7,7.167 6.382,7.168 4.065,7.166L2.576,7.166C2.567,7.166 2.557,7.165 2.547,7.165L4.49,1.105L28.27,1.105L30.213,7.166L28.424,7.166C26.26,7.166 24.096,7.167 21.932,7.156C21.774,7.155 21.573,7.079 21.454,6.975C20.303,5.968 19.161,4.952 18.019,3.936ZM11.987,7.892C13.089,6.901 14.198,5.917 15.305,4.933L16.329,4.024C16.359,3.998 16.389,3.974 16.424,3.944L16.531,4.037C16.67,4.157 16.808,4.277 16.945,4.399L17.812,5.169C18.847,6.087 19.883,7.005 20.913,7.93C21.141,8.134 21.378,8.226 21.682,8.226L21.687,8.226C23.546,8.219 25.408,8.221 27.267,8.221L29.251,8.221L29.251,16.906L3.508,16.906L3.508,8.221L5.522,8.221C7.393,8.219 9.258,8.219 11.124,8.228L11.132,8.228C11.465,8.228 11.729,8.124 11.987,7.892ZM27.835,21.628L22.557,21.628C22.048,21.628 21.877,21.8 21.876,22.31L21.876,29.013L21.136,29.013L21.136,19.947L30.131,19.947L30.131,29.012L28.648,29.012L28.648,22.427C28.648,21.786 28.488,21.628 27.835,21.628ZM27.575,22.699L27.575,29L22.954,29L22.954,22.699L27.575,22.699ZM11.923,29.021L11.923,19.95L20.037,19.95L20.037,29.009L19.432,29.009L19.431,22.469C19.431,21.909 19.284,21.763 18.715,21.763C16.923,21.761 15.13,21.761 13.337,21.763C12.811,21.763 12.659,21.914 12.659,22.435L12.659,29.021L11.923,29.021ZM18.361,22.835L18.361,29.002L13.736,29.002L13.736,22.835L18.361,22.835ZM9.531,21.763C7.738,21.761 5.946,21.761 4.153,21.763C3.589,21.763 3.443,21.91 3.443,22.475L3.443,29.012L2.033,29.012L2.033,19.948L10.824,19.948L10.824,29.011L10.216,29.011L10.216,22.462C10.216,21.907 10.076,21.763 9.531,21.763ZM9.134,22.836L9.134,29.003L4.513,29.003L4.513,22.836L9.134,22.836ZM30.937,30.098L30.937,30.953L1.227,30.953L1.227,30.098L30.937,30.098ZM32.008,29.574C32.004,29.246 31.801,29.043 31.465,29.03C31.386,29.027 31.309,29.027 31.226,29.028L31.226,19.928C31.238,19.927 31.25,19.926 31.261,19.926C31.857,19.913 32.011,19.757 32.011,19.172L32.012,18.799C32.013,18.384 32.015,17.971 32.01,17.557C32.005,17.128 31.803,16.927 31.376,16.921C31.105,16.917 30.835,16.917 30.559,16.919L30.349,16.919L30.349,8.221L30.675,8.221C30.96,8.221 31.241,8.195 31.372,8.015C31.503,7.834 31.441,7.559 31.355,7.289L29.241,0.669C29.059,0.101 28.968,0.035 28.361,0.035L4.416,0.035L4.336,0.036C4.284,0.036 4.232,0.036 4.184,0.035C3.891,0.03 3.679,0.174 3.587,0.463L2.986,2.343C2.437,4.062 1.889,5.78 1.342,7.5C1.263,7.75 1.323,7.91 1.386,8.001C1.452,8.094 1.587,8.208 1.863,8.219C2.02,8.225 2.175,8.223 2.332,8.222L2.412,8.222L2.412,16.92L1.972,16.919C1.565,16.917 1.166,16.916 0.769,16.921C0.36,16.926 0.153,17.133 0.149,17.538C0.143,18.132 0.143,18.727 0.149,19.324C0.154,19.709 0.347,19.906 0.741,19.925C0.804,19.927 0.866,19.926 0.936,19.926L0.936,29.025C0.917,29.026 0.899,29.027 0.883,29.028C0.285,29.044 0.147,29.187 0.147,29.79L0.146,31.236C0.147,31.892 0.291,32.033 0.953,32.033L31.219,32.033L31.288,32.034L31.361,32.034C31.394,32.034 31.427,32.034 31.46,32.032C31.797,32.015 32.002,31.815 32.007,31.494C32.015,30.9 32.016,30.272 32.008,29.574Z" style="fill:rgb(33,160,56);fill-rule:nonzero;"/>
            </g>
            <path d="M22.141,15.29L22.141,12.956L25.148,12.956L25.148,15.29L22.141,15.29ZM22.271,11.866C22.423,11.362 22.969,10.936 23.537,10.907C24.211,10.863 24.797,11.251 25.023,11.866L22.271,11.866ZM21.731,16.359C22.167,16.362 22.606,16.362 23.041,16.361L23.615,16.36L24.213,16.361C24.414,16.361 24.614,16.362 24.813,16.362C25.064,16.362 25.314,16.361 25.565,16.359C26.007,16.356 26.223,16.142 26.225,15.705L26.228,14.967C26.232,14.106 26.236,13.217 26.22,12.341C26.197,10.964 25.042,9.849 23.641,9.849L23.627,9.849C22.24,9.856 21.093,10.976 21.073,12.345C21.058,13.269 21.062,14.207 21.067,15.116L21.069,15.708C21.07,16.143 21.287,16.356 21.731,16.359Z" style="fill:rgb(33,160,56);fill-rule:nonzero;"/>
            <path d="M10.693,12.954L10.693,15.287L7.754,15.287L7.754,12.954L10.693,12.954ZM7.838,11.854C7.999,11.342 8.544,10.93 9.125,10.907C9.795,10.878 10.359,11.255 10.583,11.854L7.838,11.854ZM9.214,9.849L9.208,9.849C7.834,9.852 6.7,10.961 6.677,12.321C6.663,13.239 6.666,14.172 6.67,15.074L6.673,15.716C6.674,16.171 6.863,16.357 7.326,16.36C7.757,16.362 8.186,16.361 8.62,16.361L9.208,16.36L9.766,16.361L10.324,16.361C10.589,16.361 10.856,16.361 11.122,16.359C11.556,16.356 11.76,16.156 11.762,15.729L11.765,15.015C11.77,14.126 11.774,13.205 11.756,12.301C11.728,10.947 10.588,9.849 9.214,9.849Z" style="fill:rgb(33,160,56);fill-rule:nonzero;"/>
            <path d="M14.949,15.278L14.949,12.944L17.888,12.944L17.888,15.278L14.949,15.278ZM15.05,11.863C15.216,11.336 15.764,10.93 16.362,10.913L16.407,10.913C17.039,10.913 17.597,11.299 17.797,11.863L15.05,11.863ZM14.522,16.359C14.772,16.361 15.022,16.362 15.272,16.362C15.466,16.362 15.661,16.361 15.856,16.361L16.439,16.36L16.993,16.361C17.427,16.361 17.857,16.362 18.288,16.36C18.77,16.359 18.959,16.173 18.96,15.699L18.961,15.187C18.965,14.264 18.969,13.309 18.958,12.37C18.94,11.006 17.815,9.853 16.5,9.851L16.496,9.851C15.017,9.851 13.89,10.936 13.873,12.375C13.862,13.341 13.866,14.323 13.869,15.272L13.871,15.706C13.872,16.155 14.073,16.357 14.522,16.359Z" style="fill:rgb(33,160,56);fill-rule:nonzero;"/>
            <path d="M16.436,7.482C16.293,7.479 16.146,7.43 16.034,7.322C15.922,7.214 15.856,7.064 15.854,6.912C15.85,6.579 16.085,6.334 16.415,6.328L16.426,6.328C16.745,6.328 16.999,6.573 17.006,6.89C17.013,7.198 16.746,7.475 16.436,7.482ZM16.417,8.539L16.419,8.539C16.854,8.538 17.266,8.366 17.578,8.054C17.89,7.742 18.061,7.331 18.06,6.897C18.059,6.009 17.336,5.28 16.449,5.272L16.434,5.272C15.525,5.272 14.808,5.978 14.797,6.884C14.793,7.326 14.962,7.742 15.275,8.058C15.583,8.368 15.987,8.539 16.417,8.539Z" style="fill:rgb(33,160,56);fill-rule:nonzero;"/>
        </g>
    </g>
</g></symbol><symbol id="vk" viewBox="0 0 42 42"><g fill="currentColor">
<path d="M27.4024 0.166992H14.6191C2.94408 0.166992 0.166992 2.94408 0.166992 14.5982V27.3816C0.166992 39.0545 2.92324 41.8337 14.5982 41.8337H27.3816C39.0545 41.8337 41.8337 39.0774 41.8337 27.4024V14.6191C41.8337 2.94408 39.0774 0.166992 27.4024 0.166992ZM33.8045 29.8962H30.7649C29.6149 29.8962 29.2691 28.9649 27.2066 26.9024C25.4066 25.167 24.6462 24.9503 24.1899 24.9503C23.5607 24.9503 23.3878 25.1232 23.3878 25.992V28.7253C23.3878 29.4649 23.1482 29.8982 21.217 29.8982C19.3427 29.7723 17.5252 29.2029 15.9141 28.2369C14.303 27.2708 12.9444 25.9359 11.9503 24.342C9.59026 21.4045 7.94812 17.9569 7.15449 14.2732C7.15449 13.817 7.32741 13.4045 8.19616 13.4045H11.2337C12.0149 13.4045 12.2962 13.7524 12.6024 14.5545C14.0774 18.8962 16.5941 22.6712 17.6149 22.6712C18.0066 22.6712 18.1774 22.4982 18.1774 21.5212V17.0503C18.0482 15.0107 16.9649 14.8378 16.9649 14.1003C16.9788 13.9058 17.068 13.7244 17.2134 13.5944C17.3589 13.4645 17.5492 13.3964 17.7441 13.4045H22.5191C23.1712 13.4045 23.3878 13.7295 23.3878 14.5107V20.5441C23.3878 21.1962 23.6691 21.4128 23.8649 21.4128C24.2566 21.4128 24.5587 21.1962 25.2753 20.4795C26.8146 18.6023 28.0723 16.5109 29.0087 14.2712C29.1044 14.0021 29.2855 13.7718 29.5243 13.6153C29.7632 13.4588 30.0467 13.3848 30.3316 13.4045H33.3712C34.2816 13.4045 34.4753 13.8607 34.2816 14.5107C33.1763 16.9866 31.8088 19.3369 30.2024 21.5212C29.8753 22.0212 29.7441 22.2816 30.2024 22.867C30.5045 23.3232 31.5691 24.2128 32.2857 25.0587C33.3272 26.0975 34.1921 27.2994 34.8462 28.617C35.1066 29.4628 34.6712 29.8962 33.8045 29.8962Z" fill="currentColor"/>
</g></symbol><symbol id="youtube" viewBox="0 0 50 36"><g fill="currentColor">
<path d="M25.1594 0.246826H25.4375C28.0063 0.256201 41.0219 0.349952 44.5313 1.2937C45.5922 1.58173 46.5589 2.14315 47.3349 2.92185C48.1108 3.70056 48.6688 4.66928 48.9531 5.7312C49.2688 6.9187 49.4906 8.49058 49.6406 10.1125L49.6719 10.4375L49.7406 11.25L49.7656 11.575C49.9688 14.4312 49.9938 17.1062 49.9969 17.6906V17.925C49.9938 18.5312 49.9656 21.3874 49.7406 24.3624L49.7156 24.6906L49.6875 25.0156C49.5313 26.8031 49.3 28.5781 48.9531 29.8843C48.6697 30.9467 48.112 31.9159 47.3359 32.6947C46.5598 33.4735 45.5926 34.0347 44.5313 34.3218C40.9063 35.2968 27.1281 35.3656 25.2188 35.3687H24.775C23.8094 35.3687 19.8156 35.35 15.6281 35.2062L15.0969 35.1875L14.825 35.1749L14.2906 35.1531L13.7563 35.1312C10.2875 34.9781 6.98438 34.7312 5.4625 34.3187C4.40153 34.0318 3.43458 33.4711 2.65851 32.6929C1.88245 31.9146 1.32452 30.9461 1.04063 29.8843C0.69375 28.5812 0.4625 26.8031 0.30625 25.0156L0.28125 24.6875L0.25625 24.3624C0.102024 22.2449 0.0165621 20.123 0 18L0 17.6156C0.00625 16.9437 0.03125 14.6218 0.2 12.0593L0.221875 11.7375L0.23125 11.575L0.25625 11.25L0.325 10.4375L0.35625 10.1125C0.50625 8.49058 0.728125 6.91558 1.04375 5.7312C1.32717 4.66885 1.88488 3.69967 2.66098 2.92083C3.43708 2.14199 4.40428 1.58086 5.46563 1.2937C6.9875 0.887452 10.2906 0.637451 13.7594 0.481201L14.2906 0.459326L14.8281 0.440577L15.0969 0.431202L15.6313 0.409327C18.6053 0.313622 21.5806 0.260491 24.5563 0.249951H25.1594V0.246826ZM20 10.2781V25.3343L32.9906 17.8093L20 10.2781Z" fill="currentColor"/>
</g></symbol></svg>